# xmcd
#
# Track frame offsets: 
#        150
#        30743
#        56770
#        88357
#        114806
#        144698
#        171099
#        199947
#        230824
#        255617
#        284337
#        312109
#        351750
#
# Disc length: 4699 seconds
#
# Revision: 5
# Processed by: cddbd v1.5.2PL0 Copyright (c) Steve Scherf et al.
# Submitted via: ExactAudioCopyFreeDBPlugin 1.0
#
DISCID=c312590d
DTITLE=Various Artist - Hed Kandi Disco Heaven
DYEAR=2006
DGENRE=House
TTITLE0=Mish Mash - Speechless (Seamus Haji Re-Edit)
TTITLE1=Tom Novy feat Michael Marshall - Your Body (Wes Clarke Re-Edit
TTITLE1=)
TTITLE2=Righteous feat MJ White - Love Is Love (Righteous Disco Club M
TTITLE2=ix)
TTITLE3=Leah McCrae - All This Love That Im Giving (Groovefinders Re-R
TTITLE3=ub)
TTITLE4=Paul Gardner and Hugh Gunnell feat Juliet Roberts - Free Love 20
TTITLE4=06
TTITLE5=Sunkids feat Chance - Rise Up (Praise Cats Remix)
TTITLE6=Martin Solveig - Jealousy (Richard Earnshaw Vocal Re-Touch)
TTITLE7=Soulflava feat Katherine Ellis - We Got Love (Original Mix)
TTITLE8=Space Cowboy - Crazy Talk (Pique and Niques You Will Miss Me Mix
TTITLE8=)
TTITLE9=Ian Carey and Mochico feat Miss Bunty - Say What You Want (Ian C
TTITLE9=arey Vocal Mix)
TTITLE10=Gordon Black - Joy (Hott 22 Remix)
TTITLE11=Shaolin Master feat Siobhan - Friends (Original Mix)
TTITLE12=Data
EXTD=YEAR: 2006
EXTT0=
EXTT1=
EXTT2=
EXTT3=
EXTT4=
EXTT5=
EXTT6=
EXTT7=
EXTT8=
EXTT9=
EXTT10=
EXTT11=
EXTT12=
PLAYORDER=
